<?xml version="1.0" standalone="no"?>
<!DOCTYPE svg PUBLIC "-//W3C//DTD SVG 20010904//EN"
 "http://www.w3.org/TR/2001/REC-SVG-20010904/DTD/svg10.dtd">
<svg version="1.0" xmlns="http://www.w3.org/2000/svg"
 width="1077.000000pt" height="1391.000000pt" viewBox="0 0 1077.000000 1391.000000"
 preserveAspectRatio="xMidYMid meet">

<g transform="translate(0.000000,1391.000000) scale(0.100000,-0.100000)"
fill="#000000" stroke="none">
<path d="M0 6955 l0 -6955 5385 0 5385 0 0 6864 c0 6529 -1 6865 -17 6869 -17
4 -17 5 0 6 15 1 17 12 17 86 l0 85 -165 0 c-142 0 -164 -2 -159 -15 4 -9 19
-15 38 -15 26 0 31 -4 31 -25 0 -29 -1 -30 -22 -10 -8 8 -19 12 -25 9 -10 -6
-32 2 -93 34 -37 20 -215 31 -215 13 0 -6 7 -14 15 -17 8 -4 15 -12 15 -20 0
-8 8 -14 18 -14 10 0 4 -7 -16 -17 -19 -9 -36 -22 -39 -30 -3 -7 -15 -13 -28
-13 -18 0 -22 4 -18 19 6 25 -9 33 -40 22 -19 -7 -28 -6 -37 5 -7 7 -18 14
-25 14 -7 0 -15 7 -19 15 -3 8 -12 12 -20 9 -23 -9 -39 5 -26 21 9 11 7 14 -9
12 -12 -1 -21 -5 -21 -10 0 -4 -5 -5 -10 -2 -5 3 -10 1 -10 -4 0 -6 -4 -11
-10 -11 -5 0 -10 7 -10 15 0 13 -555 15 -4935 15 l-4935 0 0 -6955z m9370
6901 c0 -3 -4 -8 -10 -11 -5 -3 -10 -1 -10 4 0 6 5 11 10 11 6 0 10 -2 10 -4z
m1227 -46 c24 -17 48 -28 51 -26 4 2 18 -2 32 -10 l25 -15 -31 5 c-43 7 -145
56 -138 67 8 13 12 12 61 -21z m-361 -12 c-3 -13 -3 -17 0 -10 4 9 9 10 19 2
14 -12 9 -50 -7 -50 -6 0 -8 6 -5 13 3 8 0 14 -6 15 -61 7 -103 22 -64 22 10
0 17 7 17 15 0 9 10 15 26 15 21 0 24 -4 20 -22z m-700 -12 c3 -8 4 -22 2 -31
-2 -12 -7 -7 -15 14 -6 18 -7 31 -2 31 5 0 12 -6 15 -14z m970 -61 c-10 -8
-23 -12 -28 -9 -14 9 2 24 25 24 21 -1 21 -1 3 -15z m-97 -21 c3 -16 1 -17
-13 -5 -19 16 -21 34 -3 29 6 -3 14 -13 16 -24z m121 -23 c0 -22 25 -45 40
-36 5 3 10 2 10 -4 0 -5 3 -17 6 -25 5 -14 2 -15 -17 -8 -13 5 -30 7 -36 5 -7
-3 -13 2 -13 11 0 9 -4 16 -8 16 -5 0 -7 14 -4 30 5 33 22 42 22 11z m-75 -1
c3 -5 -3 -10 -15 -10 -12 0 -18 5 -15 10 3 6 10 10 15 10 5 0 12 -4 15 -10z
m15 -24 c0 -3 -4 -8 -10 -11 -5 -3 -10 -1 -10 4 0 6 5 11 10 11 6 0 10 -2 10
-4z m-1030 -112 c0 -8 -4 -12 -10 -9 -5 3 -10 10 -10 16 0 5 5 9 10 9 6 0 10
-7 10 -16z m170 -70 c0 -8 -4 -12 -10 -9 -5 3 -10 10 -10 16 0 5 5 9 10 9 6 0
10 -7 10 -16z m777 -26 c-3 -8 -6 -5 -6 6 -1 11 2 17 5 13 3 -3 4 -12 1 -19z
m-1230 -90 c-3 -8 -6 -5 -6 6 -1 11 2 17 5 13 3 -3 4 -12 1 -19z m873 -13 c0
-1 -6 -15 -14 -30 l-15 -28 2 35 c1 24 6 34 15 31 6 -3 12 -6 12 -8z m-5094
-106 c3 -6 0 -15 -7 -20 -23 -14 -259 -105 -334 -128 -38 -12 -84 -26 -101
-31 -40 -13 -94 -13 -94 0 0 6 8 10 18 10 9 0 30 11 46 25 16 13 37 27 48 31
11 3 39 18 61 34 23 15 53 30 67 33 14 3 52 13 84 22 49 14 119 26 193 34 6 0
15 -4 19 -10z m391 -61 c14 -17 22 -102 29 -283 2 -82 8 -153 13 -158 4 -4 48
-1 97 7 143 25 489 49 514 36 22 -12 27 -52 8 -68 -7 -5 -98 -17 -203 -26
-104 -9 -221 -21 -260 -26 -38 -5 -117 -14 -175 -20 -112 -12 -142 -22 -134
-44 7 -18 -5 -25 -58 -35 l-43 -9 35 -1 c33 -2 34 -2 16 -16 -11 -8 -16 -15
-10 -15 5 0 18 -7 29 -16 17 -13 18 -16 5 -24 -10 -7 -5 -8 18 -4 21 4 32 3
32 -5 0 -6 14 -11 30 -11 17 0 30 -4 30 -10 0 -5 -4 -10 -10 -10 -5 0 -10 -5
-10 -10 0 -6 22 -8 58 -5 l57 6 -50 -21 c-27 -11 -56 -20 -62 -20 -7 0 -13 -5
-13 -11 0 -5 -4 -8 -9 -5 -8 6 -38 -21 -30 -28 19 -14 154 -47 236 -56 99 -12
144 -10 460 17 100 8 103 5 103 -119 0 -70 -4 -100 -12 -103 -38 -14 -426 -36
-717 -42 l-333 -6 6 -36 c3 -20 10 -37 16 -39 16 -6 40 -59 34 -76 -9 -22 -67
-64 -127 -90 -63 -28 -278 -80 -414 -100 -314 -48 -823 -86 -1134 -86 -59 0
-110 -4 -113 -8 -8 -14 8 -31 45 -46 51 -21 62 -37 43 -64 -37 -53 -172 -88
-472 -122 -587 -65 -1347 -65 -1757 1 -67 11 -161 42 -178 59 -9 8 -54 196
-63 265 -5 31 -2 44 12 56 60 52 189 91 370 114 194 25 174 28 196 -35 14 -42
17 -71 13 -125 -8 -101 -2 -107 110 -104 50 2 156 3 238 4 111 0 147 3 147 13
0 8 20 12 66 12 60 0 65 1 59 20 -5 15 -1 20 17 24 52 11 106 19 163 25 l60 6
-42 19 c-60 26 -81 53 -88 111 -4 28 -13 88 -22 135 -27 153 -27 156 -7 190
13 22 40 42 89 65 110 52 286 108 380 120 28 4 109 15 182 26 72 10 136 19
142 19 24 0 34 -51 40 -195 l6 -150 55 -3 c30 -2 100 1 155 7 55 7 168 14 250
18 312 12 305 10 286 58 -15 36 5 45 106 45 52 0 104 5 115 11 12 6 52 11 90
11 69 0 80 6 52 29 -27 22 -44 67 -44 116 0 26 -7 123 -17 215 l-17 167 24 51
c29 61 35 67 135 120 81 43 116 56 390 148 219 73 227 75 505 121 199 33 243
36 257 19z m4513 -30 c-1 -34 -3 -39 -11 -26 -8 15 -3 68 7 68 2 0 4 -19 4
-42z m730 -8 c0 -5 -4 -10 -10 -10 -5 0 -10 5 -10 10 0 6 5 10 10 10 6 0 10
-4 10 -10z m-4903 -56 c15 -23 15 -29 2 -53 -18 -33 -152 -101 -193 -98 -57 4
-77 68 -40 131 13 21 96 44 166 45 41 1 50 -3 65 -25z m56 -4 c3 -11 1 -23 -4
-26 -5 -3 -9 6 -9 20 0 31 6 34 13 6z m2604 -22 c-3 -7 -5 -2 -5 12 0 14 2 19
5 13 2 -7 2 -19 0 -25z m-4009 0 c26 -26 12 -45 -50 -73 -108 -49 -181 -75
-207 -75 l-25 0 28 29 c16 16 25 34 22 39 -8 14 28 35 109 65 79 29 106 32
123 15z m66 -23 c-4 -8 -12 -15 -20 -15 -8 0 -14 7 -14 15 0 8 9 15 20 15 13
0 18 -5 14 -15z m5022 -32 c-10 -10 -19 5 -10 18 6 11 8 11 12 0 2 -7 1 -15
-2 -18z m-5529 -89 c-3 -3 -12 -4 -19 -1 -8 3 -5 6 6 6 11 1 17 -2 13 -5z
m1388 -314 c3 -5 -1 -10 -10 -10 -9 0 -13 5 -10 10 3 6 8 10 10 10 2 0 7 -4
10 -10z m0 -40 c-3 -5 -11 -10 -16 -10 -6 0 -7 5 -4 10 3 6 11 10 16 10 6 0 7
-4 4 -10z m-2535 -99 c0 -5 -10 -11 -22 -14 -13 -3 -66 -22 -118 -42 -52 -20
-147 -52 -210 -71 -63 -19 -124 -38 -135 -43 -49 -24 -99 -41 -119 -40 -15 0
-16 2 -6 6 8 4 31 16 50 28 19 12 63 27 98 35 34 7 62 17 62 21 0 5 6 9 13 9
7 0 39 13 71 30 74 37 168 70 204 70 15 0 34 5 42 10 19 12 70 13 70 1z m460
-162 c22 -40 9 -63 -43 -76 -27 -6 -55 -17 -62 -23 -29 -24 -63 32 -44 73 21
46 129 65 149 26z m3176 -120 c24 -27 8 -54 -32 -54 -35 0 -44 27 -18 56 22
24 27 24 50 -2z m-5059 -215 c-3 -3 -12 -4 -19 -1 -8 3 -5 6 6 6 11 1 17 -2
13 -5z m-57 -21 c-8 -3 -44 -19 -80 -35 -57 -27 -155 -60 -215 -74 -48 -12
127 72 195 92 65 20 145 33 100 17z m314 -139 c14 -36 6 -62 -20 -68 -25 -7
-54 7 -54 25 0 4 4 19 10 33 11 30 54 36 64 10z m4016 -874 c0 -5 -4 -10 -10
-10 -5 0 -10 5 -10 10 0 6 5 10 10 10 6 0 10 -4 10 -10z m-1419 -167 c-12 -20
-14 -14 -5 12 4 9 9 14 11 11 3 -2 0 -13 -6 -23z m-1734 -90 c-3 -10 -5 -4 -5
12 0 17 2 24 5 18 2 -7 2 -21 0 -30z m1630 -135 c-3 -8 -6 -5 -6 6 -1 11 2 17
5 13 3 -3 4 -12 1 -19z m-2372 -33 c149 -31 351 -122 463 -209 91 -70 250
-255 237 -276 -3 -6 -17 -10 -31 -10 -13 0 -24 -6 -24 -12 0 -10 -3 -9 -9 1
-6 8 -14 10 -22 5 -18 -11 -139 -15 -136 -4 4 16 -116 131 -228 216 -54 42
-190 107 -255 122 -25 6 -96 17 -157 24 -91 10 -125 10 -175 -1 -137 -28 -308
-121 -399 -217 -124 -131 -207 -308 -235 -502 -16 -105 -16 -124 0 -260 22
-197 63 -308 183 -497 110 -172 339 -341 529 -389 129 -33 396 -15 443 30 11
10 0 9 -50 -3 -98 -25 -285 -23 -379 4 -188 53 -272 99 -381 206 -155 153
-223 253 -271 402 -84 263 -86 413 -8 666 32 105 56 145 145 245 149 166 237
225 365 243 36 5 73 12 83 16 16 7 18 3 15 -21 -2 -16 -8 -29 -15 -29 -6 0
-21 -12 -33 -27 -12 -16 -28 -28 -36 -28 -8 0 -17 -7 -20 -15 -3 -8 -14 -17
-24 -20 -11 -3 -17 -12 -14 -19 3 -8 -12 -17 -48 -25 -72 -17 -120 -41 -134
-69 -6 -13 -21 -32 -33 -43 -14 -13 -21 -32 -21 -55 0 -22 -6 -37 -15 -40 -9
-4 -15 -19 -15 -38 0 -18 -9 -52 -21 -75 -11 -24 -18 -52 -16 -63 4 -12 -3
-24 -18 -34 -13 -9 -25 -29 -28 -49 -5 -30 11 -157 29 -236 3 -15 1 -30 -5
-33 -15 -10 -14 -27 2 -23 7 1 13 -12 15 -37 2 -22 13 -54 25 -70 12 -17 22
-37 24 -45 1 -9 7 -17 12 -19 6 -2 11 -12 11 -22 0 -25 11 -51 19 -46 3 2 12
-2 19 -10 11 -12 10 -15 -2 -20 -21 -8 -20 -33 1 -41 22 -8 63 -54 63 -70 0
-6 9 -14 20 -18 11 -3 19 -12 17 -18 -1 -7 6 -11 15 -9 9 1 22 -7 28 -18 6
-11 17 -20 26 -20 8 0 19 -11 24 -25 5 -14 16 -25 24 -25 8 0 21 -6 28 -13 7
-7 20 -16 28 -20 8 -4 23 -12 32 -19 15 -10 22 -10 39 0 18 12 23 12 31 0 7
-10 11 -10 15 0 7 17 50 15 57 -3 3 -8 16 -15 30 -15 14 0 27 -4 30 -9 10 -16
96 -12 103 5 3 8 12 13 20 10 9 -4 27 7 45 26 l30 33 27 -33 c15 -17 30 -32
32 -32 3 0 5 12 6 28 2 70 4 82 12 82 4 0 13 -30 18 -67 25 -164 46 -279 53
-298 17 -40 30 -148 20 -160 -12 -14 -129 -34 -210 -37 -193 -5 -369 30 -500
102 -118 63 -180 110 -276 208 -42 42 -81 77 -88 77 -41 2 -79 21 -104 53
-119 152 -169 260 -225 487 -43 174 -45 321 -7 485 42 177 45 182 115 192 12
2 26 20 40 54 37 93 87 166 181 263 71 74 92 102 88 118 -11 41 194 123 361
143 108 13 316 10 390 -5z m3812 -21 c-3 -3 -12 -4 -19 -1 -8 3 -5 6 6 6 11 1
17 -2 13 -5z m-510 -116 c-3 -8 -6 -5 -6 6 -1 11 2 17 5 13 3 -3 4 -12 1 -19z
m-182 -18 c-3 -5 -11 -10 -16 -10 -6 0 -7 5 -4 10 3 6 11 10 16 10 6 0 7 -4 4
-10z m-58 -32 c-3 -8 -6 -5 -6 6 -1 11 2 17 5 13 3 -3 4 -12 1 -19z m-3082
-13 c33 -9 66 -22 74 -29 11 -12 5 -15 -35 -20 -27 -4 -74 -2 -104 4 -30 6
-68 14 -85 17 -16 3 -40 13 -52 21 -13 8 -30 12 -38 8 -9 -3 -13 -2 -10 4 10
16 184 12 250 -5z m1286 -122 c-12 -20 -14 -14 -5 12 4 9 9 14 11 11 3 -2 0
-13 -6 -23z m-1037 5 c-5 -7 -2 -8 6 -3 7 4 15 4 19 -1 3 -5 14 -13 24 -19 19
-10 25 -27 10 -32 -5 -2 -32 12 -61 30 -50 33 -51 34 -22 35 20 0 28 -3 24
-10z m88 -70 c-6 -6 -15 -8 -19 -4 -4 4 -1 11 7 16 19 12 27 3 12 -12z m46
-11 c7 -8 7 -18 2 -27 -8 -13 -10 -12 -10 3 0 9 -7 17 -16 17 -8 0 -12 5 -9
10 8 14 20 13 33 -3z m909 -7 c13 0 23 -5 23 -11 0 -5 -4 -8 -8 -5 -13 8 -90
-15 -95 -28 -2 -6 -3 -3 -1 7 1 9 -5 21 -14 27 -14 7 -10 9 16 10 18 0 32 5
32 12 0 9 3 9 12 0 7 -7 22 -12 35 -12z m160 -6 c-3 -3 -12 -4 -19 -1 -8 3 -5
6 6 6 11 1 17 -2 13 -5z m-1032 -14 c3 -5 1 -10 -4 -10 -6 0 -11 5 -11 10 0 6
2 10 4 10 3 0 8 -4 11 -10z m1560 -20 c-45 -11 -85 -11 -85 0 0 6 25 9 58 9
47 -1 52 -3 27 -9z m350 0 c-33 -4 -80 -8 -105 -8 -44 1 -44 1 -10 7 19 4 67
7 105 8 l70 1 -60 -8z m-1858 -56 c-7 -7 -37 7 -37 17 0 6 9 5 21 -1 11 -7 19
-14 16 -16z m1705 -17 c-23 -10 -22 -12 30 -37 57 -27 171 -100 176 -112 2 -5
8 -8 14 -8 12 0 38 -26 38 -39 0 -5 13 -18 29 -27 16 -10 35 -28 42 -41 7 -13
21 -23 31 -23 10 0 18 -4 18 -10 0 -5 14 -32 30 -58 17 -27 30 -57 30 -66 0
-10 4 -15 8 -12 7 4 28 -37 101 -194 9 -19 22 -41 29 -48 6 -7 12 -22 12 -33
0 -10 5 -19 11 -19 6 0 9 -7 6 -15 -4 -8 -2 -17 3 -20 4 -3 16 27 25 67 29
125 29 148 3 198 -13 25 -26 47 -30 48 -5 2 -8 8 -8 14 0 5 -13 28 -28 51 -38
55 -44 67 -38 67 9 0 63 -84 104 -161 39 -72 40 -78 51 -224 6 -82 16 -206 21
-275 9 -104 21 -312 43 -685 6 -107 -73 -304 -195 -485 -43 -63 -185 -216
-194 -208 -3 4 18 30 48 60 56 56 138 148 138 154 0 2 15 27 34 56 59 94 142
281 151 343 8 50 -22 152 -57 196 l-19 24 3 -40 c1 -22 -2 -46 -6 -53 -4 -7
-9 -25 -12 -40 -12 -79 -16 -92 -24 -92 -5 0 -7 -9 -5 -20 2 -13 -2 -20 -11
-20 -17 0 -19 -17 -2 -22 9 -3 8 -12 -5 -31 -9 -14 -17 -35 -17 -45 0 -11 -7
-25 -15 -32 -8 -7 -15 -19 -15 -28 0 -20 -29 -52 -47 -52 -7 0 -13 -4 -13 -10
0 -5 5 -10 11 -10 6 0 1 -13 -10 -29 -11 -15 -18 -31 -14 -35 3 -3 1 -6 -6 -6
-6 0 -16 -10 -22 -22 -14 -33 -56 -88 -62 -82 -2 3 -7 -7 -11 -21 -4 -14 -10
-25 -15 -25 -5 0 -33 -24 -63 -54 -30 -29 -61 -56 -69 -59 -8 -3 9 -6 38 -6
28 -1 55 -5 58 -11 3 -5 -2 -10 -11 -10 -10 0 -45 -6 -78 -14 -34 -8 -113 -26
-176 -41 -63 -14 -162 -37 -220 -50 -58 -14 -182 -42 -277 -64 l-172 -40 -53
22 c-74 30 -169 80 -236 124 -73 47 -223 198 -285 285 -52 72 -56 87 -77 283
-6 50 -17 137 -25 195 -8 58 -24 179 -35 270 -11 91 -27 212 -35 270 -8 58
-22 171 -31 251 l-18 146 28 79 c86 242 223 441 406 589 l66 53 259 11 c508
23 681 25 647 8z m2128 -27 c0 -5 -8 -10 -17 -10 -15 0 -16 2 -3 10 19 12 20
12 20 0z m-1835 -38 c-3 -3 -11 0 -18 7 -9 10 -8 11 6 5 10 -3 15 -9 12 -12z
m213 -209 c13 -18 20 -33 15 -33 -5 0 -16 12 -25 28 -9 15 -46 58 -82 96 -36
37 -66 71 -66 75 1 9 131 -128 158 -166z m-2653 27 c3 -5 -1 -10 -10 -10 -9 0
-13 5 -10 10 3 6 8 10 10 10 2 0 7 -4 10 -10z m45 -24 c0 -3 -4 -8 -10 -11 -5
-3 -10 -1 -10 4 0 6 5 11 10 11 6 0 10 -2 10 -4z m3837 -48 c-3 -8 -6 -5 -6 6
-1 11 2 17 5 13 3 -3 4 -12 1 -19z m497 -53 c3 -8 1 -15 -4 -15 -6 0 -10 7
-10 15 0 8 2 15 4 15 2 0 6 -7 10 -15z m-1240 -140 c-4 -8 -1 -15 5 -15 6 0
12 6 12 13 5 46 33 -179 54 -438 9 -104 20 -237 25 -295 13 -140 15 -439 4
-449 -5 -5 -18 -12 -30 -15 -19 -6 -21 0 -32 121 -7 71 -15 180 -18 243 -4 63
-11 121 -17 128 -6 8 -11 64 -11 130 0 75 -3 104 -7 82 -4 -19 -7 53 -6 160 0
107 -3 228 -8 269 -6 53 -5 72 3 67 6 -3 13 -2 17 4 9 15 15 12 9 -5z m1243
-57 c-2 -13 -4 -3 -4 22 0 25 2 35 4 23 2 -13 2 -33 0 -45z m-1427 -133 c0
-27 7 -104 16 -170 17 -134 32 -314 39 -450 2 -49 7 -147 10 -218 6 -114 5
-126 -9 -121 -12 4 -16 0 -17 -17 l-2 -24 -4 25 c-3 13 -11 29 -19 35 -15 11
-36 160 -27 193 3 15 -15 180 -36 319 -4 29 -4 58 1 65 12 19 10 80 -2 73 -7
-4 -11 12 -11 42 -4 204 4 360 21 398 l13 30 13 -65 c7 -36 13 -87 14 -115z
m1444 -255 c4 -157 8 -377 11 -490 3 -113 1 -211 -4 -218 -7 -12 -11 119 -25
901 -2 65 1 112 5 105 4 -7 10 -141 13 -298z m-456 282 c35 -2 42 -5 42 -22 0
-23 -15 -27 -23 -6 -4 11 -25 15 -76 15 l-70 0 -4 -37 c-3 -35 -4 -34 -5 8
l-2 46 48 -1 c26 0 66 -2 90 -3z m-831 -74 c-2 -13 -4 -5 -4 17 -1 22 1 32 4
23 2 -10 2 -28 0 -40z m873 -37 c0 -5 -9 -7 -20 -4 -11 3 -20 7 -20 9 0 2 9 4
20 4 11 0 20 -4 20 -9z m-3613 -57 c4 -13 -43 -28 -58 -18 -16 9 11 35 34 32
11 -2 22 -8 24 -14z m3428 -149 c25 -58 26 -79 1 -32 -15 27 -25 60 -25 75 1
20 2 22 6 7 2 -11 10 -33 18 -50z m94 -50 l0 -20 -9 20 c-5 11 -9 29 -9 40 l0
20 9 -20 c5 -11 9 -29 9 -40z m70 -35 c0 -9 -4 -8 -9 5 -5 11 -9 27 -9 35 0 9
4 8 9 -5 5 -11 9 -27 9 -35z m-182 8 c-3 -8 -6 -5 -6 6 -1 11 2 17 5 13 3 -3
4 -12 1 -19z m32 -67 c0 -14 -1 -14 -6 -1 -3 8 -10 24 -15 35 -9 20 -9 20 6 1
9 -11 16 -27 15 -35z m108 17 c-3 -8 -6 -5 -6 6 -1 11 2 17 5 13 3 -3 4 -12 1
-19z m60 -10 c-3 -8 -6 -5 -6 6 -1 11 2 17 5 13 3 -3 4 -12 1 -19z m-216 -50
c5 -22 8 -42 5 -45 -6 -7 -22 25 -34 70 -9 33 -9 37 4 27 7 -7 19 -30 25 -52z
m14 -61 c4 5 5 0 2 -10 -4 -10 2 -34 13 -55 27 -50 25 -66 -2 -22 -12 19 -25
37 -29 40 -10 8 -29 48 -29 61 0 8 6 6 18 -4 10 -10 22 -14 27 -10z m-65 -59
c0 -14 -12 -8 -31 15 -10 12 -18 29 -19 37 0 15 49 -37 50 -52z m-3381 -901
c-2 -1 -15 -11 -29 -22 l-25 -20 19 23 c11 12 24 22 29 22 6 0 8 -1 6 -3z
m1236 -937 c4 -6 -6 -10 -22 -9 -25 0 -26 1 -8 9 11 5 21 9 22 9 1 1 5 -3 8
-9z m35 0 c0 -5 -2 -10 -4 -10 -3 0 -8 5 -11 10 -3 6 -1 10 4 10 6 0 11 -4 11
-10z m2766 -248 c-10 -2 -22 0 -28 6 -6 6 0 7 19 4 21 -5 23 -7 9 -10z m-1018
1 c-10 -2 -26 -2 -35 0 -10 3 -2 5 17 5 19 0 27 -2 18 -5z m-233 -24 c12 -13
-56 -59 -88 -59 l-32 1 23 18 c30 26 28 31 -16 31 -26 0 -48 -8 -72 -28 -19
-16 -50 -32 -67 -35 -35 -7 -42 3 -18 23 21 17 19 30 -6 30 -24 0 -56 -15 -84
-40 -21 -19 -83 -32 -90 -19 -3 4 11 21 30 38 28 25 45 31 83 32 26 1 92 4
147 8 126 8 182 8 190 0z m125 1 c0 -5 -19 -10 -42 -9 -37 1 -39 2 -18 9 36
12 60 12 60 0z m155 -20 c-10 -11 -22 -20 -28 -20 -5 0 1 9 14 20 31 25 37 25
14 0z m-110 -10 c-27 -12 -35 -12 -35 0 0 6 12 10 28 9 24 0 25 -1 7 -9z m-97
-17 c-16 -2 -40 -2 -55 0 -16 2 -3 4 27 4 30 0 43 -2 28 -4z m-941 -209 c-3
-3 -12 -4 -19 -1 -8 3 -5 6 6 6 11 1 17 -2 13 -5z m80 -30 c-3 -3 -12 -4 -19
-1 -8 3 -5 6 6 6 11 1 17 -2 13 -5z m518 -1 c-11 -3 -24 -9 -30 -13 -21 -17
-85 -38 -90 -31 -6 10 92 50 120 49 l20 0 -20 -5z m-461 -18 c25 -19 16 -19
-20 0 -16 8 -22 15 -14 15 8 -1 24 -7 34 -15z m53 -21 c-3 -3 -12 -4 -19 -1
-8 3 -5 6 6 6 11 1 17 -2 13 -5z m80 -30 c-3 -3 -12 -4 -19 -1 -8 3 -5 6 6 6
11 1 17 -2 13 -5z m194 -72 c-7 -2 -18 1 -23 6 -8 8 -4 9 13 5 13 -4 18 -8 10
-11z m86 -28 c-3 -3 -12 -4 -19 -1 -8 3 -5 6 6 6 11 1 17 -2 13 -5z m200 -70
c-3 -3 -12 -4 -19 -1 -8 3 -5 6 6 6 11 1 17 -2 13 -5z m1253 -144 c0 -5 -5
-10 -11 -10 -5 0 -7 5 -4 10 3 6 8 10 11 10 2 0 4 -4 4 -10z m-970 -50 c0 -5
7 -7 15 -4 8 4 15 1 15 -6 0 -6 4 -9 9 -6 5 4 18 3 30 -1 19 -8 19 -8 -5 -20
-13 -6 -24 -7 -24 -3 0 5 -15 12 -34 16 -24 4 -33 10 -29 20 6 16 23 19 23 4z
m656 -187 c-11 -11 -19 6 -11 24 8 17 8 17 12 0 3 -10 2 -21 -1 -24z"/>
<path d="M5170 12600 c0 -5 5 -10 10 -10 6 0 10 5 10 10 0 6 -4 10 -10 10 -5
0 -10 -4 -10 -10z"/>
<path d="M5088 12593 c6 -2 18 -2 25 0 6 3 1 5 -13 5 -14 0 -19 -2 -12 -5z"/>
<path d="M5130 12500 c0 -5 7 -10 15 -10 8 0 15 5 15 10 0 6 -7 10 -15 10 -8
0 -15 -4 -15 -10z"/>
<path d="M3547 12014 c-3 -4 -41 -6 -84 -6 -81 1 -104 -5 -82 -19 19 -11 -34
-31 -89 -33 -60 -2 -74 -27 -24 -43 l37 -13 -40 5 c-24 3 -45 -1 -55 -9 -29
-25 -74 -34 -130 -25 -29 4 -98 11 -152 15 -88 6 -98 5 -98 -10 0 -18 11 -24
55 -30 230 -29 239 -29 243 -18 2 7 10 12 18 12 9 0 13 -4 9 -10 -8 -14 86
-38 197 -50 180 -19 382 -9 636 31 58 10 77 17 89 35 19 29 24 77 9 86 -17 11
-28 9 -20 -3 4 -7 2 -10 -5 -8 -7 3 -12 8 -12 12 1 4 1 16 1 27 0 13 7 20 19
20 10 0 21 6 24 14 3 8 16 16 29 19 13 2 -110 5 -273 6 -163 0 -298 -2 -302
-5z m55 -29 c-4 -25 -19 -32 -72 -38 -19 -1 -25 3 -25 18 0 17 6 20 40 19 25
-1 43 3 48 12 12 21 15 17 9 -11z m126 -1 c2 -22 -2 -25 -26 -22 -18 2 -27 9
-26 20 1 10 -4 14 -12 11 -8 -3 -14 0 -14 6 0 6 17 11 38 11 33 0 38 -3 40
-26z m-308 -28 c0 -9 -30 -14 -35 -6 -4 6 3 10 14 10 12 0 21 -2 21 -4z m-33
-32 c-3 -3 -12 -4 -19 -1 -8 3 -5 6 6 6 11 1 17 -2 13 -5z"/>
<path d="M3265 11980 c11 -5 34 -8 50 -8 29 0 29 0 5 8 -14 4 -36 8 -50 8 -23
1 -23 0 -5 -8z"/>
<path d="M1889 11586 c-2 -2 -85 -9 -184 -15 -168 -11 -225 -22 -225 -43 0 -5
9 -4 19 2 26 13 31 13 25 -4 -4 -10 2 -14 18 -14 25 0 112 -9 166 -18 17 -3
32 -9 32 -14 0 -5 17 -14 38 -22 51 -18 588 -18 687 0 39 7 97 15 130 17 107
8 152 23 198 66 12 10 32 20 46 20 14 1 -1 6 -34 11 -56 9 -908 22 -916 14z"/>
<path d="M4290 13040 c0 -5 4 -10 9 -10 6 0 13 5 16 10 3 6 -1 10 -9 10 -9 0
-16 -4 -16 -10z"/>
<path d="M1831 8810 c-1 -14 -4 -36 -6 -50 l-6 -25 11 25 c6 13 9 36 7 50 l-4
25 -2 -25z"/>
<path d="M1766 8787 c3 -10 9 -15 12 -12 3 3 0 11 -7 18 -10 9 -11 8 -5 -6z"/>
<path d="M1785 8750 c3 -5 8 -10 11 -10 2 0 4 5 4 10 0 6 -5 10 -11 10 -5 0
-7 -4 -4 -10z"/>
<path d="M3545 8990 c-3 -5 -14 -10 -23 -10 -20 0 -112 -95 -112 -115 0 -7 -6
-15 -12 -17 -10 -4 -13 -36 -13 -119 0 -104 3 -118 27 -164 97 -184 290 -180
391 9 19 35 22 57 22 146 -1 97 -3 109 -28 152 -32 53 -76 95 -124 115 -38 15
-119 17 -128 3z m148 -86 c41 -30 75 -102 83 -175 12 -118 -43 -199 -150 -221
-49 -11 -59 -10 -91 8 -48 25 -72 56 -90 117 -20 68 -19 143 4 192 20 44 65
90 96 98 40 11 121 1 148 -19z"/>
<path d="M3592 8728 c-8 -8 -9 -15 0 -25 14 -17 39 2 31 23 -6 17 -15 18 -31
2z"/>
<path d="M3028 7643 c7 -3 16 -2 19 1 4 3 -2 6 -13 5 -11 0 -14 -3 -6 -6z"/>
<path d="M3065 7641 c-3 -5 -1 -12 5 -16 5 -3 10 1 10 9 0 18 -6 21 -15 7z"/>
<path d="M3092 7619 c2 -7 10 -15 17 -17 8 -3 12 1 9 9 -2 7 -10 15 -17 17 -8
3 -12 -1 -9 -9z"/>
<path d="M3140 7596 c9 -9 41 -18 75 -21 l60 -5 -45 13 c-25 8 -58 17 -75 21
-27 7 -28 6 -15 -8z"/>
<path d="M10401 13894 c0 -11 3 -14 6 -6 3 7 2 16 -1 19 -3 4 -6 -2 -5 -13z"/>
<path d="M10060 13855 c0 -8 4 -15 9 -15 5 0 11 7 15 15 3 9 0 15 -9 15 -8 0
-15 -7 -15 -15z"/>
</g>
</svg>
